<svg xmlns:xlink="http://www.w3.org/1999/xlink" version="1.1" class="highcharts-root" style="font-family:&quot;Lucida Grande&quot;, &quot;Lucida Sans Unicode&quot;, Arial, Helvetica, sans-serif;font-size:12px;" xmlns="http://www.w3.org/2000/svg" width="600" height="400" viewBox="0 0 600 400"><desc>Created with Highcharts 8.1.0</desc><defs><clipPath id="highcharts-o16v8ze-10-"><rect x="0" y="0" width="530" height="269" fill="none"></rect></clipPath></defs><rect fill="#ffffff" class="highcharts-background" x="0" y="0" width="600" height="400" rx="0" ry="0"></rect><rect fill="none" class="highcharts-plot-background" x="60" y="53" width="530" height="269"></rect><g class="highcharts-grid highcharts-xaxis-grid" data-z-index="1"><path fill="none" data-z-index="1" class="highcharts-grid-line" d="M 64.5 53 L 64.5 322" opacity="1"></path><path fill="none" data-z-index="1" class="highcharts-grid-line" d="M 129.5 53 L 129.5 322" opacity="1"></path><path fill="none" data-z-index="1" class="highcharts-grid-line" d="M 194.5 53 L 194.5 322" opacity="1"></path><path fill="none" data-z-index="1" class="highcharts-grid-line" d="M 259.5 53 L 259.5 322" opacity="1"></path><path fill="none" data-z-index="1" class="highcharts-grid-line" d="M 324.5 53 L 324.5 322" opacity="1"></path><path fill="none" data-z-index="1" class="highcharts-grid-line" d="M 389.5 53 L 389.5 322" opacity="1"></path><path fill="none" data-z-index="1" class="highcharts-grid-line" d="M 454.5 53 L 454.5 322" opacity="1"></path><path fill="none" data-z-index="1" class="highcharts-grid-line" d="M 519.5 53 L 519.5 322" opacity="1"></path><path fill="none" data-z-index="1" class="highcharts-grid-line" d="M 584.5 53 L 584.5 322" opacity="1"></path></g><g class="highcharts-grid highcharts-yaxis-grid" data-z-index="1"><path fill="none" stroke="#e6e6e6" stroke-width="1" data-z-index="1" class="highcharts-grid-line" d="M 60 322.5 L 590 322.5" opacity="1"></path><path fill="none" stroke="#e6e6e6" stroke-width="1" data-z-index="1" class="highcharts-grid-line" d="M 60 255.5 L 590 255.5" opacity="1"></path><path fill="none" stroke="#e6e6e6" stroke-width="1" data-z-index="1" class="highcharts-grid-line" d="M 60 188.5 L 590 188.5" opacity="1"></path><path fill="none" stroke="#e6e6e6" stroke-width="1" data-z-index="1" class="highcharts-grid-line" d="M 60 120.5 L 590 120.5" opacity="1"></path><path fill="none" stroke="#e6e6e6" stroke-width="1" data-z-index="1" class="highcharts-grid-line" d="M 60 52.5 L 590 52.5" opacity="1"></path></g><rect fill="none" class="highcharts-plot-border" data-z-index="1" x="60" y="53" width="530" height="269"></rect><g class="highcharts-axis highcharts-xaxis" data-z-index="2"><path fill="none" class="highcharts-tick" stroke="#ccd6eb" stroke-width="1" d="M 64.5 322 L 64.5 332" opacity="1"></path><path fill="none" class="highcharts-tick" stroke="#ccd6eb" stroke-width="1" d="M 129.5 322 L 129.5 332" opacity="1"></path><path fill="none" class="highcharts-tick" stroke="#ccd6eb" stroke-width="1" d="M 194.5 322 L 194.5 332" opacity="1"></path><path fill="none" class="highcharts-tick" stroke="#ccd6eb" stroke-width="1" d="M 259.5 322 L 259.5 332" opacity="1"></path><path fill="none" class="highcharts-tick" stroke="#ccd6eb" stroke-width="1" d="M 324.5 322 L 324.5 332" opacity="1"></path><path fill="none" class="highcharts-tick" stroke="#ccd6eb" stroke-width="1" d="M 389.5 322 L 389.5 332" opacity="1"></path><path fill="none" class="highcharts-tick" stroke="#ccd6eb" stroke-width="1" d="M 454.5 322 L 454.5 332" opacity="1"></path><path fill="none" class="highcharts-tick" stroke="#ccd6eb" stroke-width="1" d="M 519.5 322 L 519.5 332" opacity="1"></path><path fill="none" class="highcharts-tick" stroke="#ccd6eb" stroke-width="1" d="M 584.5 322 L 584.5 332" opacity="1"></path><path fill="none" class="highcharts-axis-line" stroke="#ccd6eb" stroke-width="1" data-z-index="7" d="M 60 322.5 L 590 322.5"></path></g><g class="highcharts-axis highcharts-yaxis" data-z-index="2"><text x="26" data-z-index="7" text-anchor="middle" transform="translate(0,0) rotate(270 26 187.5)" class="highcharts-axis-title" style="color:#666666;fill:#666666;" y="187.5"><tspan>Values</tspan></text><path fill="none" class="highcharts-axis-line" data-z-index="7" d="M 60 53 L 60 322"></path></g><g class="highcharts-series-group" data-z-index="3"><g data-z-index="0.1" class="highcharts-series highcharts-series-0 highcharts-line-series highcharts-color-0" transform="translate(60,53) scale(1 1)" clip-path="url(#highcharts-o16v8ze-10-)"><path fill="none" d="M 5.1960784313725 201.75 L 265 134.5 L 524.80392156863 67.25" class="highcharts-graph" data-z-index="1" stroke="#7cb5ec" stroke-width="2" stroke-linejoin="round" stroke-linecap="round"></path></g><g data-z-index="0.1" class="highcharts-markers highcharts-series-0 highcharts-line-series highcharts-color-0" transform="translate(60,53) scale(1 1)" clip-path="none"><path fill="#7cb5ec" d="M 5 206 A 4 4 0 1 1 5.0039999993333355 205.99999800000018 Z" opacity="1" class="highcharts-point highcharts-color-0"></path><path fill="#7cb5ec" d="M 265 139 A 4 4 0 1 1 265.00399999933336 138.99999800000018 Z" opacity="1" class="highcharts-point highcharts-color-0"></path><path fill="#7cb5ec" d="M 524 71 A 4 4 0 1 1 524.0039999993334 70.99999800000016 Z" opacity="1" class="highcharts-point highcharts-color-0"></path></g></g><text x="300" text-anchor="middle" class="highcharts-title" data-z-index="4" style="color:#333333;font-size:18px;fill:#333333;" y="24"><tspan>Chart title</tspan></text><text x="300" text-anchor="middle" class="highcharts-subtitle" data-z-index="4" style="color:#666666;fill:#666666;" y="52"></text><text x="10" text-anchor="start" class="highcharts-caption" data-z-index="4" style="color:#666666;fill:#666666;" y="397"></text><g class="highcharts-legend" data-z-index="7" transform="translate(258,356)"><rect fill="none" class="highcharts-legend-box" rx="0" ry="0" x="0" y="0" width="83" height="29" visibility="visible"></rect><g data-z-index="1"><g><g class="highcharts-legend-item highcharts-line-series highcharts-color-0 highcharts-series-0" data-z-index="1" transform="translate(8,3)"><path fill="none" d="M 0 11 L 16 11" class="highcharts-graph" stroke="#7cb5ec" stroke-width="2"></path><path fill="#7cb5ec" d="M 8 15 A 4 4 0 1 1 8.003999999333336 14.999998000000167 Z" class="highcharts-point" opacity="1"></path><text x="21" style="color:#333333;cursor:pointer;font-size:12px;font-weight:bold;fill:#333333;" text-anchor="start" data-z-index="2" y="15"><tspan>Series 1</tspan></text></g></g></g></g><g class="highcharts-axis-labels highcharts-xaxis-labels" data-z-index="7"><text x="65.196078431373" style="color:#666666;cursor:default;font-size:11px;fill:#666666;" text-anchor="middle" transform="translate(0,0)" y="341" opacity="1">0</text><text x="130.14705882353" style="color:#666666;cursor:default;font-size:11px;fill:#666666;" text-anchor="middle" transform="translate(0,0)" y="341" opacity="1">0.25</text><text x="195.09803921569" style="color:#666666;cursor:default;font-size:11px;fill:#666666;" text-anchor="middle" transform="translate(0,0)" y="341" opacity="1">0.5</text><text x="260.04901960784" style="color:#666666;cursor:default;font-size:11px;fill:#666666;" text-anchor="middle" transform="translate(0,0)" y="341" opacity="1">0.75</text><text x="325" style="color:#666666;cursor:default;font-size:11px;fill:#666666;" text-anchor="middle" transform="translate(0,0)" y="341" opacity="1">1</text><text x="389.95098039216" style="color:#666666;cursor:default;font-size:11px;fill:#666666;" text-anchor="middle" transform="translate(0,0)" y="341" opacity="1">1.25</text><text x="454.90196078431" style="color:#666666;cursor:default;font-size:11px;fill:#666666;" text-anchor="middle" transform="translate(0,0)" y="341" opacity="1">1.5</text><text x="519.85294117647" style="color:#666666;cursor:default;font-size:11px;fill:#666666;" text-anchor="middle" transform="translate(0,0)" y="341" opacity="1">1.75</text><text x="584.80392156863" style="color:#666666;cursor:default;font-size:11px;fill:#666666;" text-anchor="middle" transform="translate(0,0)" y="341" opacity="1">2</text></g><g class="highcharts-axis-labels highcharts-yaxis-labels" data-z-index="7"><text x="45" style="color:#666666;cursor:default;font-size:11px;fill:#666666;" text-anchor="end" transform="translate(0,0)" y="326" opacity="1">0</text><text x="45" style="color:#666666;cursor:default;font-size:11px;fill:#666666;" text-anchor="end" transform="translate(0,0)" y="259" opacity="1">1</text><text x="45" style="color:#666666;cursor:default;font-size:11px;fill:#666666;" text-anchor="end" transform="translate(0,0)" y="192" opacity="1">2</text><text x="45" style="color:#666666;cursor:default;font-size:11px;fill:#666666;" text-anchor="end" transform="translate(0,0)" y="124" opacity="1">3</text><text x="45" style="color:#666666;cursor:default;font-size:11px;fill:#666666;" text-anchor="end" transform="translate(0,0)" y="57" opacity="1">4</text></g><text x="590" class="highcharts-credits" text-anchor="end" data-z-index="8" style="cursor:pointer;color:#999999;font-size:9px;fill:#999999;" y="395">Highcharts.com</text></svg>